#!OML:ASF H:\LiuWeirdWalks\Patient Classification 1\Patient 1\Session 1\male.ASF
:FULLY-SPECIFIED
:DEGREES
372
root 1.09205 17.1191 19.3034 4.77758 29.2711 6.69422
lowerback 10.6936 -0.844057 -8.81952
upperback 1.25991 -2.18591 -1.23157
thorax -4.39756 -0.926825 3.9747
lowerneck -13.5765 -4.47249 -0.679569
upperneck 9.98577 -6.02834 1.09185
head 5.27554 -2.89226 -0.0570527
rclavicle -4.68883e-014 -1.88845e-014
rhumerus -38.5453 -12.9989 -39.0024
rradius 60.1963
rwrist -14.9877
rhand -16.6066 1.34761
rfingers 7.12502
rthumb 9.61488 -28.413
lclavicle -4.68883e-014 -1.88845e-014
lhumerus -52.9158 -0.709074 51.7115
lradius 41.4248
lwrist 8.5377
lhand -6.26254 0.15549
lfingers 7.12502
lthumb 19.58 29.1895
rfemur -37.1715 -15.0901 0.938374
rtibia 22.4522
rfoot -18.7812 -39.1625
rtoes -5.64429
lfemur 11.8013 -6.37465 -24.0191
ltibia 21.1774
lfoot -15.9844 16.6675
ltoes -18.7956
373
root 1.08984 16.9863 19.544 5.1142 29.2067 7.21886
lowerback 10.4065 -0.840077 -9.29356
upperback 1.2422 -2.20547 -1.26294
thorax -4.23698 -0.935447 4.19982
lowerneck -13.8158 -4.5694 -0.730577
upperneck 10.1809 -6.157 1.13379
head 5.38015 -2.9504 -0.0556902
rclavicle -2.51463e-014 3.67752e-015
rhumerus -38.2074 -15.1294 -38.6637
rradius 60.4461
rwrist -15.1009
rhand -20.6722 1.69909
rfingers 7.12502
rthumb 5.6908 -28.2045
lclavicle -2.51463e-014 3.67752e-015
lhumerus -52.4489 2.02554 49.9398
lradius 40.4582
lwrist 7.60649
lhand -8.8531 -0.0852453
lfingers 7.12502
lthumb 17.0878 29.1833
rfemur -37.5495 -14.9424 0.359655
rtibia 22.3385
rfoot -18.2363 -38.9771
rtoes -5.81743
lfemur 12.9058 -6.45515 -24.2625
ltibia 20.645
lfoot -16.6155 17.6458
ltoes -18.9858
374
root 1.0854 16.8697 19.7957 5.31791 29.1119 7.50375
lowerback 10.0911 -0.822889 -9.59056
upperback 1.20187 -2.18135 -1.23634
thorax -4.09478 -0.924444 4.38106
lowerneck -14.0494 -4.69238 -0.872961
upperneck 10.4617 -6.32029 1.29105
head 5.51832 -3.01939 -0.00865077
rclavicle -2.045e-014 3.18055e-015
rhumerus -38.0518 -17.1861 -38.4494
rradius 60.7249
rwrist -15.2544
rhand -24.5096 2.14262
rfingers 7.12502
rthumb 1.98523 -27.8279
lclavicle -2.045e-014 3.18055e-015
lhumerus -52.1076 4.92444 48.1364
lradius 39.4792
lwrist 6.78654
lhand -11.5867 -0.300089
lfingers 7.12502
lthumb 14.4553 29.1764
rfemur -37.7969 -14.5964 0.0460178
rtibia 22.1787
rfoot -17.8256 -38.8322
rtoes -6.07064
lfemur 13.9499 -6.56563 -24.2288
ltibia 20.2574
lfoot -17.0497 18.2992
ltoes -19.4309
375
root 1.07832 16.7675 20.0566 5.4177 29.0321 7.64847
lowerback 9.81372 -0.79076 -9.784
upperback 1.12874 -2.12996 -1.16563
thorax -4.01499 -0.897745 4.54978
lowerneck -14.2593 -4.85501 -1.12564
upperneck 10.7977 -6.52827 1.53114
head 5.67792 -3.10748 0.076852
rclavicle 3.03644e-014 2.82274e-014
rhumerus -38.1257 -19.1045 -38.3095
rradius 61.0572
rwrist -15.5149
rhand -28.0807 2.69331
rfingers 7.12502
rthumb -1.46384 -27.2814
lclavicle 3.03644e-014 2.82274e-014
lhumerus -51.9187 7.86612 46.39
lradius 38.569
lwrist 6.32264
lhand -14.4652 -0.338046
lfingers 7.12502
lthumb 11.6805 29.3163
rfemur -37.9128 -14.1713 -0.0556589
rtibia 22.0181
rfoot -17.5346 -38.7177
rtoes -6.39114
lfemur 14.9055 -6.7142 -24.0078
ltibia 20.0914
lfoot -17.2734 18.6354
ltoes -20.1801
376
root 1.06821 16.6779 20.3262 5.43167 28.9625 7.70124
lowerback 9.5792 -0.742229 -9.92262
upperback 1.03357 -2.05582 -1.06415
thorax -3.98715 -0.857316 4.71985
lowerneck -14.4633 -5.04965 -1.45879
upperneck 11.2183 -6.77332 1.82379
head 5.87017 -3.21142 0.186321
rclavicle -3.72659e-014 1.25483e-014
rhumerus -38.389 -20.8472 -38.2394
rradius 61.4127
rwrist -15.9085
rhand -31.3358 3.44629
rfingers 7.12502
rthumb -4.60742 -26.4836
lclavicle -3.72659e-014 1.25483e-014
lhumerus -51.8658 10.7809 44.7303
lradius 37.7458
lwrist 6.35692
lhand -17.4116 -0.141534
lfingers 7.12502
lthumb 8.83818 29.6534
rfemur -37.933 -13.7298 0.0526821
rtibia 21.9156
rfoot -17.3323 -38.6138
rtoes -6.66616
lfemur 15.7536 -6.88333 -23.6491
ltibia 20.1925
lfoot -17.2708 18.6843
ltoes -21.197
377
root 1.05766 16.5993 20.6028 5.37439 28.9048 7.69617
lowerback 9.40295 -0.690678 -9.97925
upperback 0.91633 -1.97746 -0.964417
thorax -4.01939 -0.81229 4.84436
lowerneck -14.6317 -5.2542 -1.7837
upperneck 11.6354 -7.03041 2.08687
head 6.05642 -3.32296 0.284416
rclavicle -7.55386e-014 -1.30685e-015
rhumerus -38.7968 -22.3715 -38.2615
rradius 61.7345
rwrist -16.4251
rhand -34.2522 4.29486
rfingers 7.12502
rthumb -7.42303 -25.5549
lclavicle -7.55386e-014 -1.30685e-015
lhumerus -51.9504 13.5393 43.1955
lradius 37.0374
lwrist 7.00562
lhand -20.3951 0.190322
lfingers 7.12502
lthumb 5.95834 30.0865
rfemur -37.8894 -13.475 0.434063
rtibia 21.9085
rfoot -16.9911 -38.35
rtoes -6.91549
lfemur 16.5147 -7.07169 -23.2069
ltibia 20.5443
lfoot -17.0439 18.4749
ltoes -22.3848
